<?xml version="1.0" encoding="UTF-8"?><svg id="Calque_2" xmlns="http://www.w3.org/2000/svg" viewBox="0 0 196.77 88.11"><g id="Calque_1-2"><path d="m34.19,42.77L2.63,59.99c-3.43,1.87-3.52,6.77-.15,8.76l31.57,18.65c3.36,1.99,7.6-.44,7.6-4.34v-35.87c0-3.83-4.09-6.26-7.45-4.42Z"/><path d="m23.61,64.11c2.85,1.37,5.97,2.07,9.08,2.59,4.31.72,8.69,1.09,13.05,1.29,10.61.49,21.27.07,31.85-.84s20.54-2.2,30.57-4.53c3.8-.88,7.6-1.9,11.23-3.35,4.34-1.73,8.15-4.35,11.66-7.43,4.96-4.36,9.39-10.36,9.08-17.28-.26-5.83-3.87-10.74-8.9-13.51s-11.07-3.55-16.46-1.83-10.01,5.83-12.85,10.79-4.24,11.14-3.71,16.97c.56,6.2,3.22,11.87,7.36,16.48,9.04,10.06,23.4,13.7,36.42,11.25,14.44-2.71,27.15-12.04,36.3-23.24s15.39-25,17.56-39.39c.53-3.52.84-7.06.91-10.62.04-1.93-2.96-1.93-3,0-.27,13.72-4.26,27.24-11.35,38.99-7.11,11.77-17.42,22.02-30.01,27.79-11.92,5.47-25.88,5.99-37.36-.88-5.16-3.09-9.49-7.56-11.96-13.08-2.21-4.92-2.52-10.64-1.28-15.85s3.97-10.05,8.19-13.33,9.54-4.47,14.74-3.3c4.82,1.09,9.6,4.08,11.53,8.81,2.41,5.92-.49,12.03-4.54,16.41-3.29,3.56-7.37,6.79-11.8,8.81-2.97,1.36-6.38,2.36-9.64,3.21-9.11,2.36-18.49,3.71-27.84,4.68-10.15,1.05-20.37,1.61-30.57,1.48-7.76-.1-15.88-.33-23.4-2.44-.63-.18-1.25-.37-1.86-.59-.73-.26-.89-.33-1.5-.62-1.73-.83-3.26,1.76-1.51,2.59h0Z"/></g></svg>