<?xml version="1.0" encoding="UTF-8"?><svg id="Calque_2" xmlns="http://www.w3.org/2000/svg" viewBox="0 0 463.01 396.83"><defs><style>.cls-1{fill:#008b73;}</style></defs><g id="Calque_1-2"><path class="cls-1" d="m370.91,3.95c51.12,12.88,93.25,62.94,92.07,109.4-1.03,40.91-30.87,72.63-63.82,96.32-32.95,23.69-70.81,42.87-96.33,73.32-25.83,30.82-38.18,72.27-72.05,95.69-24.31,16.8-58.26,22.16-91.11,15.16-32.85-6.99-64.21-26.03-86.07-51.37-17.72-20.54-29.11-44.55-38.12-68.56-17.96-47.85-25.77-103.9,7.25-137.17,15.69-15.81,39.61-24.36,64.78-23.28,29.94,1.29,64.2,16.5,92.21,6.41,19.52-7.03,24.69-25.47,34.25-41.02C243.38,31.01,300.69-13.75,370.91,3.95Z"/></g></svg>